<?xml version="1.0" encoding="UTF-8" standalone="no"?>
<!-- Generator: Adobe Illustrator 21.1.0, SVG Export Plug-In . SVG Version: 6.00 Build 0)  -->

<svg
   xmlns:dc="http://purl.org/dc/elements/1.1/"
   xmlns:cc="http://creativecommons.org/ns#"
   xmlns:rdf="http://www.w3.org/1999/02/22-rdf-syntax-ns#"
   xmlns:svg="http://www.w3.org/2000/svg"
   xmlns="http://www.w3.org/2000/svg"
   xmlns:sodipodi="http://sodipodi.sourceforge.net/DTD/sodipodi-0.dtd"
   xmlns:inkscape="http://www.inkscape.org/namespaces/inkscape"
   version="1.1"
   id="Layer_1"
   inkscape:version="0.92.4 (5da689c313, 2019-01-14)"
   sodipodi:docname="colors.svg"
   x="0px"
   y="0px"
   viewBox="0 0 512 512"
   style="enable-background:new 0 0 512 512;"
   xml:space="preserve"><metadata
   id="metadata153"><rdf:RDF><cc:Work
       rdf:about=""><dc:format>image/svg+xml</dc:format><dc:type
         rdf:resource="http://purl.org/dc/dcmitype/StillImage" /><dc:title></dc:title></cc:Work></rdf:RDF></metadata><defs
   id="defs151" />
<style
   type="text/css"
   id="style139">
	.st0{display:none;fill:#EFEAEA;}
	.st1{fill:none;stroke:#000000;stroke-width:89;stroke-miterlimit:10;}
	.st2{fill:#262626;}
</style>
<path
   class="st0"
   d="M419,501.3H90.1c-48.3,0-87.8-39.5-87.8-87.8V100c0-48.3,39.5-87.8,87.8-87.8H419c48.3,0,87.8,39.5,87.8,87.8  v313.5C506.8,461.8,467.3,501.3,419,501.3z"
   id="path141" />
<sodipodi:namedview
   bordercolor="#666666"
   borderopacity="1"
   gridtolerance="10"
   guidetolerance="10"
   id="namedview4578"
   inkscape:current-layer="Layer_1"
   inkscape:cx="206.2988"
   inkscape:cy="147.03066"
   inkscape:pagecheckerboard="true"
   inkscape:pageopacity="0"
   inkscape:pageshadow="2"
   inkscape:snap-intersection-paths="true"
   inkscape:snap-object-midpoints="true"
   inkscape:window-height="1017"
   inkscape:window-maximized="1"
   inkscape:window-width="2560"
   inkscape:window-x="427"
   inkscape:window-y="-8"
   inkscape:zoom="0.63529125"
   objecttolerance="10"
   pagecolor="#ffffff"
   showgrid="false"
   inkscape:snap-bbox="false"
   inkscape:snap-bbox-midpoints="false">
	</sodipodi:namedview>



<path
   style="fill:#000000;stroke-width:1"
   d="M 224.95732,503.43466 C 168.32628,495.60293 123.00812,472.68066 80.893762,430.5663 3.0385619,352.7111 -15.739768,243.16014 32.203212,146.51016 65.288052,79.813228 121.69724,32.98369 191.90352,13.93089 c 33.61529,-9.1226103 98.08179,-9.2919603 132.21521,-0.34726 102.53742,26.86995 174.81252,107.52321 181.51722,202.55865 4.5988,65.18618 -34.7581,123.55099 -96.211,142.67724 -17.0229,5.29814 -35.39463,7.40126 -64.65378,7.40126 h -40.87359 l -13.22152,13.22152 c -16.13582,16.13581 -18.14763,37.79737 -5.05607,54.44054 9.96989,12.6747 13.77084,37.07439 7.57792,48.64591 -10.25881,19.16883 -32.19892,25.8903 -68.24059,20.90594 z M 119.82951,251.81095 c 15.00355,-6.26887 25.40982,-23.19642 25.40982,-41.33328 0,-18.79871 -21.63897,-38.69107 -42.08827,-38.69107 -44.679828,0 -58.715328,59.62603 -18.683908,79.37358 15.14268,7.46992 18.877338,7.53864 35.362358,0.65077 z m 307.42334,-0.60683 c 40.1378,-19.04669 26.2493,-79.41752 -18.2703,-79.41752 -20.44935,0 -42.08831,19.89236 -42.08831,38.69107 0,17.70307 10.29743,34.9668 24.55591,41.16824 16.065,6.98715 20.2563,6.93543 35.8027,-0.44179 z M 210.16294,136.95987 c 27.43983,-16.7311 24.38815,-58.072343 -5.32757,-72.173406 -28.7416,-13.638777 -59.59604,5.874905 -59.59604,37.691096 0,12.60769 2.56695,18.21218 13.22152,28.86674 15.58397,15.58394 32.36438,17.40656 51.70209,5.61557 z m 143.50978,-5.61557 c 10.65456,-10.65456 13.22152,-16.25905 13.22152,-28.86678 0,-44.954571 -60.24409,-58.67524 -79.4958,-18.105239 -13.66207,28.790599 7.19029,60.142369 40.02567,60.178999 9.64168,0.0117 16.46301,-3.42138 26.24861,-13.20698 z"
   id="path970"
   inkscape:connector-curvature="0" /></svg>