<?xml version="1.0" encoding="UTF-8" standalone="no"?>
<!-- Created with Inkscape (http://www.inkscape.org/) -->

<svg
   xmlns:dc="http://purl.org/dc/elements/1.1/"
   xmlns:cc="http://creativecommons.org/ns#"
   xmlns:rdf="http://www.w3.org/1999/02/22-rdf-syntax-ns#"
   xmlns:svg="http://www.w3.org/2000/svg"
   xmlns="http://www.w3.org/2000/svg"
   xmlns:sodipodi="http://sodipodi.sourceforge.net/DTD/sodipodi-0.dtd"
   xmlns:inkscape="http://www.inkscape.org/namespaces/inkscape"
   width="512"
   height="512"
   viewBox="0 0 135.46666 135.46667"
   version="1.1"
   id="svg8"
   inkscape:version="0.92.4 (5da689c313, 2019-01-14)"
   sodipodi:docname="compareTrees.svg">
  <defs
     id="defs2" />
  <sodipodi:namedview
     id="base"
     pagecolor="#ffffff"
     bordercolor="#666666"
     borderopacity="1.0"
     inkscape:pageopacity="0.0"
     inkscape:pageshadow="2"
     inkscape:zoom="1.28"
     inkscape:cx="212.22482"
     inkscape:cy="202.53506"
     inkscape:document-units="mm"
     inkscape:current-layer="layer1"
     showgrid="false"
     units="px"
     inkscape:object-paths="true"
     inkscape:window-width="2560"
     inkscape:window-height="1017"
     inkscape:window-x="-8"
     inkscape:window-y="-8"
     inkscape:window-maximized="1" />
  <metadata
     id="metadata5">
    <rdf:RDF>
      <cc:Work
         rdf:about="">
        <dc:format>image/svg+xml</dc:format>
        <dc:type
           rdf:resource="http://purl.org/dc/dcmitype/StillImage" />
        <dc:title />
      </cc:Work>
    </rdf:RDF>
  </metadata>
  <g
     inkscape:label="Layer 1"
     inkscape:groupmode="layer"
     id="layer1"
     transform="translate(0,-161.53332)">
    <g
       id="g33"
       transform="matrix(0.97656253,0,0,0.97656253,1.5875002,5.3734322)">
      <path
         sodipodi:nodetypes="ccccccccccccscccssscccscccccccccccccsccccccccccc"
         inkscape:connector-curvature="0"
         id="path43"
         d="m 35.902325,161.53401 c -1.970185,0.0297 -3.544211,1.64924 -3.517792,3.61946 v 21.17959 c -0.04299,0.31746 -0.04299,0.63926 0,0.95671 v 15.87197 L 24.504835,195.011 c -0.251448,-0.38751 -0.575656,-0.72256 -0.95469,-0.98658 L 12.414749,182.50633 c -0.660546,-0.7033 -1.577497,-1.10949 -2.5421975,-1.12608 -3.2072359,-0.0565 -4.8576671,3.81513 -2.5959995,6.08987 l 5.757051,5.95437 -9.3834911,0.0497 C 1.6400086,193.43019 -0.01034517,195.0532 4.8829063e-5,197.06376 0.00967883,199.0743 1.6774589,200.68017 3.6869837,200.61543 l 16.2168013,-0.0869 12.480748,12.90726 v 39.7749 c 0,1.9731 1.599503,3.5726 3.572617,3.5726 1.973098,0 3.572618,-1.5995 3.572618,-3.5726 v -27.92 l 16.223763,-16.86454 13.865935,0.85204 c 1.979836,0.13846 3.692917,-1.36359 3.814461,-3.34452 0.121548,-1.98095 -1.395064,-3.68113 -3.376977,-3.78577 l -7.802958,-0.47933 6.571228,-6.83132 c 2.290221,-2.31659 0.538056,-6.23891 -2.715592,-6.07892 -0.926632,0.0451 -1.799405,0.44892 -2.433571,1.12608 l -11.674526,12.13604 c -0.205246,0.17047 -0.390779,0.36327 -0.553077,0.575 L 39.529768,214.9845 v -2.24422 c 0.08619,-0.44697 0.08619,-0.90633 0,-1.35329 V 188.2771 l 5.529823,-5.42219 8.785561,0.61186 c 1.979866,0.15717 3.707741,-1.33085 3.845991,-3.31213 0.13827,-1.98127 -1.366218,-3.69486 -3.348726,-3.81416 l -2.464461,-0.17145 2.125635,-2.08477 c 2.362949,-2.24881 0.723068,-6.22776 -2.538203,-6.15865 -0.927424,0.0194 -1.810877,0.39909 -2.463461,1.05834 l -7.494029,7.34853 c -0.246974,0.18609 -0.468724,0.40352 -0.659718,0.64675 l -1.318412,1.2935 v -13.11951 c 0.027,-2.01317 -1.614311,-3.65088 -3.627443,-3.61946 z"
         style="color:#000000;font-style:normal;font-variant:normal;font-weight:normal;font-stretch:normal;font-size:medium;line-height:normal;font-family:sans-serif;font-variant-ligatures:normal;font-variant-position:normal;font-variant-caps:normal;font-variant-numeric:normal;font-variant-alternates:normal;font-feature-settings:normal;text-indent:0;text-align:start;text-decoration:none;text-decoration-line:none;text-decoration-style:solid;text-decoration-color:#000000;letter-spacing:normal;word-spacing:normal;text-transform:none;writing-mode:lr-tb;direction:ltr;text-orientation:mixed;dominant-baseline:auto;baseline-shift:baseline;text-anchor:start;white-space:normal;shape-padding:0;clip-rule:nonzero;display:inline;overflow:visible;visibility:visible;opacity:1;isolation:auto;mix-blend-mode:normal;color-interpolation:sRGB;color-interpolation-filters:linearRGB;solid-color:#000000;solid-opacity:1;vector-effect:none;fill:#000000;fill-opacity:1;fill-rule:nonzero;stroke:none;stroke-width:4.67975378;stroke-linecap:round;stroke-linejoin:miter;stroke-miterlimit:4;stroke-dasharray:none;stroke-dashoffset:0;stroke-opacity:1;color-rendering:auto;image-rendering:auto;shape-rendering:auto;text-rendering:auto;enable-background:accumulate" />
      <path
         sodipodi:nodetypes="ccccccccccccccccccccccccccccccccccccccccccccc"
         inkscape:connector-curvature="0"
         id="path4580"
         d="m 101.89084,201.74999 c -1.96819,0.0297 -3.540605,1.64753 -3.514217,3.61578 v 13.10812 l -9.462513,-9.28131 c -0.678716,-0.68536 -1.605963,-1.06673 -2.570457,-1.05726 -3.204888,0.0303 -4.748184,3.9422 -2.427103,6.15236 L 98.376623,228.471 v 26.67721 l -6.213105,-6.458 c -0.254736,-0.39918 -0.586386,-0.74373 -0.975618,-1.01345 L 74.250953,230.07182 c -0.658459,-0.70331 -1.57334,-1.11051 -2.536607,-1.12892 -3.200709,-0.0593 -4.854196,3.80041 -2.603309,6.0767 l 12.029979,12.50584 -7.800972,0.47884 c -4.791718,0.25313 -4.349681,7.45759 0.437041,7.123 l 13.858767,-0.85115 10.740771,11.16585 v 27.89152 c -0.134525,4.88865 7.268477,4.88865 7.133957,0 v -29.33602 c 5.2e-4,-0.0355 5.2e-4,-0.0711 0,-0.10649 v -10.2888 l 6.28278,-6.49882 16.7259,4.17427 c 4.68764,1.27341 6.46368,-5.84507 1.72725,-6.92291 l -12.72487,-3.17676 3.2295,-3.33999 11.12006,0.0868 c 4.75863,0.0351 4.81141,-7.10277 0.0527,-7.13793 l -4.32358,-0.0317 2.99158,-3.09511 c 2.29426,-2.30714 0.55639,-6.22991 -2.69392,-6.0807 -0.92631,0.0436 -1.79931,0.44591 -2.43407,1.12198 l -8.34751,8.63322 c -0.3801,0.26465 -0.70503,0.60075 -0.95669,0.98956 l -7.68153,7.94432 -0.003,0.004 c -0.30194,0.2264 -0.56604,0.49924 -0.78248,0.80838 l -2.18221,2.25689 v -15.85097 c 0.0453,-0.32629 0.0453,-0.65732 0,-0.98359 V 205.3668 c 0.0269,-2.00954 -1.61024,-3.6449 -3.61974,-3.61578 z"
         style="color:#000000;font-style:normal;font-variant:normal;font-weight:normal;font-stretch:normal;font-size:medium;line-height:normal;font-family:sans-serif;font-variant-ligatures:normal;font-variant-position:normal;font-variant-caps:normal;font-variant-numeric:normal;font-variant-alternates:normal;font-feature-settings:normal;text-indent:0;text-align:start;text-decoration:none;text-decoration-line:none;text-decoration-style:solid;text-decoration-color:#000000;letter-spacing:normal;word-spacing:normal;text-transform:none;writing-mode:lr-tb;direction:ltr;text-orientation:mixed;dominant-baseline:auto;baseline-shift:baseline;text-anchor:start;white-space:normal;shape-padding:0;clip-rule:nonzero;display:inline;overflow:visible;visibility:visible;opacity:1;isolation:auto;mix-blend-mode:normal;color-interpolation:sRGB;color-interpolation-filters:linearRGB;solid-color:#000000;solid-opacity:1;vector-effect:none;fill:#000000;fill-opacity:1;fill-rule:nonzero;stroke:none;stroke-width:4.67498112;stroke-linecap:round;stroke-linejoin:miter;stroke-miterlimit:4;stroke-dasharray:none;stroke-dashoffset:0;stroke-opacity:1;color-rendering:auto;image-rendering:auto;shape-rendering:auto;text-rendering:auto;enable-background:accumulate" />
    </g>
  </g>
</svg>
