<?xml version="1.0" encoding="UTF-8" standalone="no"?>
<svg
   xmlns:dc="http://purl.org/dc/elements/1.1/"
   xmlns:cc="http://creativecommons.org/ns#"
   xmlns:rdf="http://www.w3.org/1999/02/22-rdf-syntax-ns#"
   xmlns:svg="http://www.w3.org/2000/svg"
   xmlns="http://www.w3.org/2000/svg"
   xmlns:sodipodi="http://sodipodi.sourceforge.net/DTD/sodipodi-0.dtd"
   xmlns:inkscape="http://www.inkscape.org/namespaces/inkscape"
   inkscape:export-ydpi="96"
   inkscape:export-xdpi="96"
   inkscape:export-filename="C:\Users\Alex\Desktop\traveler_color.png"
   sodipodi:docname="traveler_bw.svg"
   inkscape:version="1.0 (4035a4fb49, 2020-05-01)"
   id="svg8"
   version="1.1"
   viewBox="0 0 512 512"
   height="512"
   width="512">
  <defs
     id="defs2" />
  <sodipodi:namedview
     inkscape:document-rotation="0"
     inkscape:pagecheckerboard="false"
     inkscape:window-maximized="1"
     inkscape:window-y="-12"
     inkscape:window-x="-12"
     inkscape:window-height="1890"
     inkscape:window-width="3000"
     units="px"
     showgrid="true"
     inkscape:current-layer="layer1"
     inkscape:document-units="px"
     inkscape:cy="431.9575"
     inkscape:cx="324.33723"
     inkscape:zoom="1"
     inkscape:pageshadow="2"
     inkscape:pageopacity="0.0"
     borderopacity="1.0"
     bordercolor="#666666"
     pagecolor="#ffffff"
     id="base">
    <inkscape:grid
       spacingy="20"
       spacingx="20"
       id="grid1358"
       type="xygrid" />
  </sodipodi:namedview>
  <metadata
     id="metadata5">
    <rdf:RDF>
      <cc:Work
         rdf:about="">
        <dc:format>image/svg+xml</dc:format>
        <dc:type
           rdf:resource="http://purl.org/dc/dcmitype/StillImage" />
        <dc:title></dc:title>
      </cc:Work>
    </rdf:RDF>
  </metadata>
  <g
     transform="translate(0,-11.25001)"
     id="layer1"
     inkscape:groupmode="layer"
     inkscape:label="Layer 1">
    <path
       id="path1400"
       style="fill:#000000;fill-opacity:1;stroke-width:0.999998"
       d="m 254.73346,11.251993 c -76.8364,0.301672 -149.52039,34.927696 -198.817572,96.077997 -66.55379,82.55589 -74.39458,199.41749 -19.54724,291.28434 72.515812,121.46028 229.254112,160.8513 351.078552,88.2331 25.41449,-15.14937 49.32275,-35.77124 67.64851,-58.3487 67.43194,-83.07775 75.66938,-200.3837 20.55649,-292.69512 C 435.04819,67.793474 366.46335,23.031848 287.86106,13.24637 276.77104,11.865684 265.71014,11.208956 254.73346,11.251993 Z m -0.12713,28.444226 c 8.94475,-0.04043 17.97852,0.49246 27.39482,1.584769 50.24805,5.828798 96.62836,27.707247 132.2707,62.394952 44.66376,43.46743 69.33264,102.45798 69.24663,163.64748 H 431.08589 L 426.5123,167.0212 c -0.26769,-5.08188 -0.42284,-7.56625 -0.54743,-8.05638 -0.92763,-3.63007 -2.64699,-5.53282 -5.41288,-5.99108 -0.38823,-0.0624 -0.87466,-0.0829 -1.37863,-0.0617 v 0 c -0.84032,0.0254 -1.72779,0.18051 -2.29153,0.39755 -2.41255,0.93324 -3.91275,3.14335 -4.35546,6.42069 -0.0771,0.57518 0.17441,6.6953 1.22074,29.67566 l 1.31976,28.94881 1.06003,23.25489 c 0.15022,2.99451 0.32908,6.82701 0.61842,12.95652 l 0.59827,12.7558 h -51.47152 v -61.6762 c 2.55365,-4.33435 8.78068,-1.29153 12.9298,-2.6167 9.53561,-1.26932 16.6667,-10.55713 16.26929,-20.02244 -0.18866,-4.7935 0.66262,-9.84208 -0.81915,-14.46234 -2.15227,-4.44174 -9.12895,-3.21518 -10.24614,1.39603 -0.88377,6.32722 1.88398,13.88512 -2.90446,19.1778 -3.79906,3.12006 -10.13574,3.95291 -14.47975,1.89 -1.40913,-1.81674 -0.40543,-4.33874 -0.72279,-6.47024 -0.14659,-7.11697 0.23855,-14.28019 -0.40694,-21.3583 -0.6152,-3.08937 -2.97217,-5.84889 -6.34442,-5.6792 -6.00602,-0.31853 -7.69543,6.63129 -7.03775,11.37984 -0.063,17.90539 -0.0267,35.81071 -0.0363,53.71617 0,2.61396 -4.35559,2.48561 -8.7617,1.55133 -6.32057,-1.34018 -8.97579,-8.45256 -8.57838,-14.4115 -0.15796,-8.97524 1.26802,-18.10995 -0.47115,-26.97856 -1.33744,-4.4662 -8.25334,-5.00718 -10.09215,-0.64247 -1.5823,4.44228 -0.40296,9.38992 -0.80448,14.02731 0.21923,9.85017 -2.10923,20.64243 3.2097,29.58464 4.24869,7.2234 12.75717,11.07057 20.98214,10.55529 3.92063,-0.0219 4.49327,-0.92887 4.49327,5.09298 0.05,8.64883 0.0528,17.29753 0.0617,25.94656 h -57.16152 l 100.85101,97.81799 -126.81498,-61.5129 a 38.627585,38.627585 0 0 1 -35.14199,-4.7369 38.627585,38.627585 0 0 1 -16.47008,-31.40091 l -0.17263,-0.16728 H 28.488858 c 0.0165,-8.50279 0.54092,-17.09748 1.57806,-26.03894 C 41.446688,143.18689 112.6973,65.036626 209.26227,44.738218 c 15.77628,-3.316331 30.4375,-4.976278 45.3453,-5.043438 z M 217.20098,267.32342 h 77.74868 l -0.32258,-0.31318 A 38.627585,38.627585 0 0 0 278.1557,235.60796 38.627585,38.627585 0 0 0 243.01501,230.86969 L 116.19866,169.35816 Z m 87.94527,98.34937 h 22.87749 v 38.73313 c 0,1.15776 0.15036,2.13932 0.45237,2.94469 0.35238,0.755 0.80489,1.38391 1.35855,1.88726 0.60403,0.45306 1.25891,0.77981 1.96361,0.98116 0.75507,0.20134 1.53563,0.30249 2.341,0.30249 0.85567,0 1.73608,-0.0752 2.64213,-0.22622 0.95641,-0.20134 2.01322,-0.5294 3.17091,-0.98245 l 2.49225,8.15541 c -1.00665,0.30194 -1.93771,0.57819 -2.79345,0.82983 -0.85567,0.25172 -1.71148,0.45265 -2.56715,0.60369 -0.85567,0.20134 -1.76213,0.35307 -2.71847,0.45374 -0.95641,0.10067 -2.01316,0.15125 -3.17091,0.15125 -4.73156,0 -8.30515,-1.38487 -10.72126,-4.15337 -2.36582,-2.8188 -3.54968,-6.6193 -3.54968,-11.40122 v -29.52166 h -11.77739 z m -215.037382,4.00075 h 9.13656 v 11.47749 h 15.854342 v 8.68283 H 99.245428 v 13.13724 c 0,2.86917 0.62891,4.90747 1.887272,6.11553 1.25835,1.15768 3.27212,1.73738 6.04055,1.73738 1.4094,0 2.69182,-0.12575 3.8495,-0.37746 1.20806,-0.25172 2.39199,-0.57977 3.54968,-0.98246 l 1.96224,8.00417 c -1.66112,0.50328 -3.49849,0.95586 -5.51192,1.35855 -1.96306,0.45305 -4.20243,0.67996 -6.71921,0.67996 -2.96978,0 -5.486632,-0.40331 -7.550432,-1.20868 -2.06373,-0.80537 -3.74937,-1.91269 -5.0581,-3.32208 -1.25843,-1.45977 -2.16481,-3.19606 -2.71847,-5.20942 -0.55366,-2.0135 -0.83121,-4.25411 -0.83121,-6.72052 v -13.21221 h -9.43768 v -8.23039 l 9.9664,-0.45244 z m 64.299622,10.57138 c 1.66111,0 2.99403,0.12583 4.00075,0.37747 1.05708,0.25164 2.13979,0.62897 3.24718,1.13233 l -2.26473,9.28644 c -1.15769,-0.35238 -2.2145,-0.60389 -3.17091,-0.75493 -0.90604,-0.20135 -2.06393,-0.30113 -3.47333,-0.30113 -2.31545,0 -4.6067,0.67942 -6.87184,2.03851 -2.21477,1.35903 -4.12732,3.72416 -5.73806,7.09662 v 19.48036 h -11.09873 v -37.44956 h 9.06022 l 0.90611,8.15411 h 0.22759 c 1.86239,-3.07044 4.10176,-5.33579 6.71922,-6.79549 2.61745,-1.51007 5.43646,-2.26473 8.45653,-2.26473 z m 34.62664,0 c 5.23498,0 9.36223,1.38357 12.38238,4.152 3.02014,2.76843 4.53076,7.0215 4.53076,12.75977 v 21.44259 h -9.06022 l -0.83121,-4.22696 h -0.30249 c -1.91276,1.45977 -4.00164,2.69291 -6.26678,3.69955 -2.26507,0.95642 -4.6056,1.43353 -7.02171,1.43353 -1.91269,0 -3.62438,-0.30209 -5.13445,-0.90612 -1.51007,-0.55365 -2.79248,-1.33298 -3.8495,-2.3397 -1.05701,-1.05708 -1.88815,-2.26562 -2.49225,-3.62465 -0.55365,-1.35903 -0.82983,-2.84374 -0.82983,-4.45448 0,-2.1141 0.4525,-3.95141 1.35855,-5.51185 0.90604,-1.61074 2.34018,-2.96963 4.30324,-4.07702 2.01342,-1.10738 4.58085,-1.9878 7.70167,-2.64219 3.12081,-0.7047 6.89547,-1.18325 11.32495,-1.4349 -0.20135,-1.71141 -0.95601,-3.04563 -2.26473,-4.00204 -1.25843,-0.95635 -3.17105,-1.4349 -5.73814,-1.4349 -1.81208,0 -3.64945,0.32806 -5.51184,0.98246 -1.81209,0.60403 -3.77521,1.43386 -5.88938,2.49095 l -3.92577,-7.24793 c 2.56715,-1.45977 5.31091,-2.66824 8.23038,-3.62458 2.96977,-0.95635 6.06489,-1.43353 9.28637,-1.43353 z m 90.69595,0 c 2.86917,0 5.41062,0.45258 7.62539,1.35855 2.21477,0.90611 4.05208,2.16379 5.51185,3.77453 1.51,1.61074 2.64343,3.52336 3.39843,5.73813 0.75507,2.1644 1.13233,4.5309 1.13233,7.09799 1.3e-4,1.00671 -0.0751,1.98834 -0.22615,2.94469 -0.10068,0.90604 -0.20183,1.58545 -0.3025,2.03851 h -25.51961 c 0.55366,2.71812 1.78679,4.70592 3.69955,5.96428 1.91276,1.25843 4.40371,1.88856 7.47415,1.88856 1.71141,0 3.32188,-0.22683 4.83195,-0.67989 1.56037,-0.45305 3.17214,-1.10793 4.83326,-1.9636 l 3.69955,6.72058 c -2.16447,1.35903 -4.55557,2.44044 -7.17296,3.24582 -2.61745,0.75506 -5.18495,1.13233 -7.70167,1.13233 -2.91953,0 -5.66322,-0.42784 -8.23031,-1.28358 -2.51679,-0.90604 -4.70551,-2.18846 -6.56797,-3.8495 -1.86239,-1.66104 -3.32243,-3.70079 -4.37951,-6.1169 -1.05709,-2.46642 -1.58614,-5.25945 -1.58614,-8.38026 0,-3.07044 0.52905,-5.81427 1.58614,-8.23038 1.10738,-2.46642 2.56749,-4.52946 4.37951,-6.19051 1.81209,-1.71141 3.87513,-2.99506 6.1905,-3.8508 2.36582,-0.90597 4.80749,-1.35855 7.32421,-1.35855 z m 90.54463,0 c 2.8691,0 5.41199,0.45258 7.62676,1.35855 2.21477,0.90611 4.05078,2.16379 5.51055,3.77453 1.51007,1.61074 2.64336,3.52336 3.39843,5.73813 0.755,2.1644 1.13233,4.5309 1.13233,7.09799 0,1.00671 -0.0752,1.98834 -0.22622,2.94469 -0.10061,0.90604 -0.20176,1.58545 -0.3025,2.03851 h -25.51961 c 0.55366,2.71812 1.78686,4.70592 3.69962,5.96428 1.91276,1.25843 4.40364,1.88856 7.47408,1.88856 1.71141,0 3.32318,-0.22683 4.83332,-0.67989 1.56038,-0.45305 3.17078,-1.10793 4.83189,-1.9636 l 3.69962,6.72058 c -2.1644,1.35903 -4.5555,2.44044 -7.17296,3.24582 -2.61745,0.75506 -5.18488,1.13233 -7.70167,1.13233 -2.9194,0 -5.66192,-0.42784 -8.22901,-1.28358 -2.51678,-0.90604 -4.70695,-2.18846 -6.56934,-3.8495 -1.86245,-1.66104 -3.3225,-3.70079 -4.37951,-6.1169 -1.05702,-2.46642 -1.58477,-5.25945 -1.58477,-8.38026 0,-3.07044 0.52775,-5.81427 1.58477,-8.23038 1.10738,-2.46642 2.56743,-4.52946 4.37951,-6.19051 1.81209,-1.71141 3.87506,-2.99506 6.1905,-3.8508 2.36575,-0.90597 4.80742,-1.35855 7.32421,-1.35855 z m 55.76674,0 c 1.66104,0 2.9954,0.12583 4.00212,0.37747 1.05708,0.25164 2.13979,0.62897 3.24718,1.13233 l -2.2661,9.28644 c -1.15769,-0.35238 -2.21443,-0.60389 -3.17084,-0.75493 -0.90604,-0.20135 -2.064,-0.30113 -3.4734,-0.30113 -2.31538,0 -4.60539,0.67942 -6.87047,2.03851 -2.21477,1.35903 -4.12732,3.72416 -5.73806,7.09662 v 19.48036 h -11.09873 v -37.44956 h 9.06022 l 0.90611,8.15411 h 0.22622 c 1.86245,-3.07044 4.10313,-5.33579 6.72059,-6.79549 2.61745,-1.51007 5.43502,-2.26473 8.45516,-2.26473 z m -212.87572,0.90611 h 11.1737 l 5.88938,17.6667 c 0.60403,1.91276 1.18366,3.82668 1.73732,5.73944 0.55372,1.91275 1.10738,3.84998 1.66111,5.8131 h 0.30112 c 0.55373,-1.96312 1.08279,-3.90035 1.58614,-5.8131 0.55366,-1.91276 1.13199,-3.82668 1.73602,-5.73944 l 5.88931,-17.6667 h 10.64636 l -13.7423,37.44956 h -12.75977 z m 66.94181,7.54913 c -2.2147,0 -4.07681,0.57956 -5.58688,1.73731 -1.4597,1.15776 -2.46731,2.91865 -3.02097,5.2844 h 16.00703 c -0.55373,-4.68126 -3.02001,-7.02171 -7.39918,-7.02171 z m 90.54463,0 c -2.21477,0 -4.07674,0.57956 -5.58681,1.73731 -1.4597,1.15776 -2.46594,2.91865 -3.01967,5.2844 h 16.00566 c -0.55366,-4.68126 -3.02001,-7.02171 -7.39918,-7.02171 z m -175.80493,12.45865 c -2.76843,0.15104 -5.05838,0.40248 -6.87047,0.75486 -1.81208,0.35232 -3.24622,0.80482 -4.30324,1.35855 -1.05708,0.50336 -1.81167,1.10766 -2.26473,1.81236 -0.40261,0.7047 -0.60498,1.46066 -0.60498,2.26603 0,1.20799 0.45387,2.11314 1.35992,2.71717 0.95634,0.55366 2.24006,0.83114 3.8508,0.83114 1.66104,0 3.22093,-0.3282 4.6807,-0.98239 1.45977,-0.7047 2.84327,-1.55927 4.152,-2.56592 z" />
  </g>
</svg>
