<?xml version="1.0" encoding="UTF-8" standalone="no"?>
<svg
   xmlns:dc="http://purl.org/dc/elements/1.1/"
   xmlns:cc="http://creativecommons.org/ns#"
   xmlns:rdf="http://www.w3.org/1999/02/22-rdf-syntax-ns#"
   xmlns:svg="http://www.w3.org/2000/svg"
   xmlns="http://www.w3.org/2000/svg"
   xmlns:sodipodi="http://sodipodi.sourceforge.net/DTD/sodipodi-0.dtd"
   xmlns:inkscape="http://www.inkscape.org/namespaces/inkscape"
   sodipodi:docname="traveler_color.svg"
   inkscape:version="1.0 (4035a4fb49, 2020-05-01)"
   id="svg8"
   version="1.1"
   viewBox="0 0 512 512"
   height="512"
   width="512">
  <defs
     id="defs2" />
  <sodipodi:namedview
     inkscape:document-rotation="0"
     inkscape:pagecheckerboard="false"
     inkscape:window-maximized="1"
     inkscape:window-y="-12"
     inkscape:window-x="-12"
     inkscape:window-height="1890"
     inkscape:window-width="3000"
     units="px"
     showgrid="true"
     inkscape:current-layer="layer1"
     inkscape:document-units="px"
     inkscape:cy="431.9575"
     inkscape:cx="324.33723"
     inkscape:zoom="1"
     inkscape:pageshadow="2"
     inkscape:pageopacity="0.0"
     borderopacity="1.0"
     bordercolor="#666666"
     pagecolor="#ffffff"
     id="base">
    <inkscape:grid
       spacingy="20"
       spacingx="20"
       id="grid1358"
       type="xygrid" />
  </sodipodi:namedview>
  <metadata
     id="metadata5">
    <rdf:RDF>
      <cc:Work
         rdf:about="">
        <dc:format>image/svg+xml</dc:format>
        <dc:type
           rdf:resource="http://purl.org/dc/dcmitype/StillImage" />
        <dc:title></dc:title>
      </cc:Work>
    </rdf:RDF>
  </metadata>
  <g
     transform="translate(0,-11.25001)"
     id="layer1"
     inkscape:groupmode="layer"
     inkscape:label="Layer 1">
    <g
       style="stroke-width:1.4592"
       transform="matrix(0.68530537,0,0,0.68530537,2804.4484,-2860.5963)"
       id="g1448">
      <path
         style="fill:#411757;fill-opacity:1;stroke-width:1.4592"
         d="m -3672.2115,4193.5222 c -129.4606,-16.1172 -256.2458,35.3084 -338.4568,137.2863 -97.1155,120.4658 -108.5563,290.9904 -28.5229,425.0428 105.8153,177.2352 334.5288,234.7152 512.2954,128.7505 37.0849,-22.106 71.9708,-52.197 98.7118,-85.1421 98.3969,-121.2273 110.4173,-292.402 29.9964,-427.1031 -59.2495,-99.2406 -159.3272,-164.5554 -274.0239,-178.8344 z"
         id="path1347" />
      <path
         id="path1349"
         style="fill:#903c75;fill-opacity:1;stroke-width:1.4592;stroke-miterlimit:4;stroke-dasharray:none"
         d="m -3720.7377,4232.1172 c -21.7535,0.098 -43.1471,2.5202 -66.1679,7.3594 -140.9079,29.6195 -244.8771,143.6566 -261.4825,286.7988 -1.5134,13.0474 -2.2785,25.5888 -2.3027,37.9961 h 663.9824 c 0.1255,-89.2879 -35.8714,-175.3671 -101.0449,-238.7949 -52.0094,-50.6164 -119.6877,-82.5415 -193.0098,-91.0469 -13.7403,-1.5939 -26.9224,-2.3713 -39.9746,-2.3125 z" />
      <path
         id="path1351"
         style="fill:#c27070;fill-opacity:1;stroke-width:1.4592"
         d="m -3720.4838,4273.6231 c -19.0343,0.086 -37.7533,2.2052 -57.8964,6.4394 -123.2944,25.9171 -214.2691,125.6998 -228.7989,250.9492 -1.3248,11.4215 -1.993,22.3988 -2.0136,33.2598 h 580.9843 c 0.1134,-78.1315 -31.384,-153.4566 -88.414,-208.959 -45.5082,-44.2893 -104.726,-72.2238 -168.8828,-79.666 -12.0229,-1.3946 -23.5579,-2.0749 -34.9786,-2.0234 z" />
      <path
         id="path1353"
         style="fill:#f7c5a2;fill-opacity:1;stroke-width:1.4592"
         d="m -3720.2299,4315.1289 c -16.3151,0.074 -32.3594,1.8902 -49.625,5.5196 -105.681,22.2146 -183.6591,107.743 -196.1132,215.0996 -1.1362,9.7949 -1.7095,19.2092 -1.7266,28.5234 h 497.9863 c 0.1012,-66.9752 -26.8968,-131.546 -75.7832,-179.123 -39.007,-37.9622 -89.7643,-61.9061 -144.7558,-68.2852 -10.3053,-1.1954 -20.1934,-1.7785 -29.9825,-1.7344 z" />
      <path
         id="path1355"
         style="fill:#411757;fill-opacity:1;stroke-width:1.4592"
         d="m -3480.6025,4397.3234 c -1.2262,0.037 -2.5212,0.2634 -3.3438,0.5801 -3.5204,1.3618 -5.7091,4.5883 -6.3551,9.3706 -0.1125,0.8393 0.2529,9.7685 1.7797,43.3015 l 1.926,42.2432 1.547,33.9336 c 0.2192,4.3696 0.4796,9.9625 0.9018,18.9067 l 1.0543,22.4479 20.0063,-0.9123 -6.806,-149.2842 c -0.3906,-7.4155 -0.6175,-11.0404 -0.7993,-11.7556 -1.3536,-5.297 -3.861,-8.0734 -7.897,-8.7421 -0.5665,-0.091 -1.2773,-0.1222 -2.0127,-0.091 z" />
      <path
         id="path1357"
         style="fill:#411757;fill-opacity:1;stroke-width:1.4592"
         d="m -3568.193,4404.0198 c -8.764,-0.4648 -11.2288,9.6761 -10.2691,16.6052 -0.092,26.1276 -0.039,52.2554 -0.053,78.3831 0,3.8143 -6.3565,3.6274 -12.7859,2.2641 -9.223,-1.9556 -13.0976,-12.3353 -12.5177,-21.0306 -0.2305,-13.0967 1.8505,-26.4263 -0.6873,-39.3674 -1.9516,-6.5171 -12.0428,-7.3052 -14.7261,-0.9362 -2.3089,6.4822 -0.5879,13.7023 -1.1738,20.4692 0.3199,14.3733 -3.0783,30.1208 4.6831,43.1693 6.1997,10.5404 18.6165,16.1538 30.6184,15.4019 5.721,-0.032 6.5553,-1.3555 6.5553,7.4316 0.092,15.9536 0.069,31.9077 0.1015,47.8615 h 20.0679 v -99.9982 c 3.7263,-6.3247 12.8125,-1.8847 18.8669,-3.8184 13.9144,-1.8522 24.3198,-15.4054 23.7399,-29.2172 -0.2753,-6.9947 0.9672,-14.3602 -1.195,-21.1021 -3.1406,-6.4814 -13.321,-4.6933 -14.9512,2.0354 -1.2897,9.2327 2.7495,20.2615 -4.2378,27.9846 -5.5436,4.5527 -14.7902,5.7677 -21.129,2.7575 -2.0562,-2.651 -0.5925,-6.33 -1.0556,-9.4403 -0.2139,-10.3851 0.349,-20.8381 -0.5929,-31.1665 -0.8977,-4.508 -4.3376,-8.5341 -9.2584,-8.2865 z"
         sodipodi:nodetypes="sccsccccccccccccccccccss" />
      <path
         id="path1359"
         d="m -3940.0601,4786.3373 q -6.5003,0 -11.0175,-1.7628 -4.5172,-1.7628 -7.3817,-4.8477 -2.7544,-3.1951 -3.9663,-7.602 -1.2119,-4.4071 -1.2119,-9.8056 v -19.2806 h -13.7718 v -12.009 l 14.543,-0.6611 2.0933,-16.7465 h 13.3312 v 16.7465 h 23.1366 v 12.6701 h -23.1366 v 19.1704 q 0,6.28 2.7543,8.9242 2.7544,2.534 8.814,2.534 3.0849,0 5.6189,-0.5509 2.6442,-0.5509 5.1782,-1.4323 l 2.8646,11.6786 q -3.6358,1.1017 -8.0428,1.9831 -4.2968,0.9916 -9.8055,0.9916 z"
         style="font-style:normal;font-variant:normal;font-weight:bold;font-stretch:normal;font-size:245.418px;line-height:1.25;font-family:'Source Code Pro';-inkscape-font-specification:'Source Code Pro Bold';letter-spacing:0px;word-spacing:0px;fill:#f7c5a2;fill-opacity:1;stroke:none;stroke-width:1.4592" />
      <path
         id="path1361"
         d="m -3903.9659,4785.0152 v -54.6467 h 13.221 l 1.3221,11.8989 h 0.3305 q 4.0764,-6.7206 9.8055,-9.9157 5.7291,-3.3052 12.3395,-3.3052 3.6358,0 5.8393,0.5508 2.3137,0.5509 4.7375,1.6527 l -3.3052,13.5514 q -2.534,-0.7712 -4.6273,-1.1017 -1.9832,-0.4407 -5.0681,-0.4407 -5.068,0 -10.0259,2.9747 -4.8477,2.9747 -8.3733,10.3564 v 28.4251 z"
         style="font-style:normal;font-variant:normal;font-weight:bold;font-stretch:normal;font-size:245.418px;line-height:1.25;font-family:'Source Code Pro';-inkscape-font-specification:'Source Code Pro Bold';letter-spacing:0px;word-spacing:0px;fill:#f7c5a2;fill-opacity:1;stroke:none;stroke-width:1.4592" />
      <path
         d="m -3816.42,4729.0474 c -4.7008,0 -9.2173,0.6963 -13.5508,2.0918 -4.2601,1.3955 -8.2638,3.159 -12.0098,5.2891 l 5.7285,10.5762 c 3.085,-1.5425 5.9496,-2.7534 8.5938,-3.6348 2.7176,-0.9549 5.3988,-1.4336 8.043,-1.4336 3.7459,0 6.5367,0.6982 8.373,2.0937 1.9097,1.3956 3.0109,3.3426 3.3047,5.8399 -6.4635,0.3672 -11.9715,1.0654 -16.5254,2.0937 -4.5539,0.9549 -8.3003,2.2396 -11.2383,3.8555 -2.8645,1.6159 -4.9572,3.5988 -6.2793,5.9492 -1.3221,2.277 -1.9824,4.9581 -1.9824,8.043 0,2.3504 0.403,4.5169 1.2109,6.5 0.8815,1.9831 2.0944,3.7466 3.6368,5.2891 1.5424,1.469 3.4137,2.6061 5.6172,3.414 2.2035,0.8814 4.7011,1.3223 7.4921,1.3223 3.5256,0 6.9409,-0.6962 10.2461,-2.0918 3.3053,-1.4689 6.3535,-3.2684 9.1446,-5.3985 h 0.4414 l 1.2129,6.168 h 13.2207 v -31.289 c 0,-8.3733 -2.2044,-14.5795 -6.6114,-18.6192 -4.407,-4.0397 -10.4296,-6.0586 -18.0683,-6.0586 z m 8.4824,30.5176 v 9.0352 c -1.9097,1.4689 -3.9285,2.7158 -6.0586,3.7441 -2.1301,0.9548 -4.4063,1.4336 -6.8301,1.4336 -2.3504,0 -4.2236,-0.405 -5.6191,-1.2129 -1.3221,-0.8814 -1.9844,-2.2021 -1.9844,-3.9648 0,-1.1752 0.2953,-2.2784 0.8828,-3.3067 0.6611,-1.0283 1.7622,-1.91 3.3047,-2.6445 1.5424,-0.808 3.6351,-1.4683 6.2793,-1.9824 2.6442,-0.5142 5.9857,-0.8812 10.0254,-1.1016 z"
         style="font-style:normal;font-variant:normal;font-weight:bold;font-stretch:normal;font-size:245.418px;line-height:1.25;font-family:'Source Code Pro';-inkscape-font-specification:'Source Code Pro Bold';letter-spacing:0px;word-spacing:0px;fill:#f7c5a2;fill-opacity:1;stroke:none;stroke-width:1.4592"
         id="path1363" />
      <path
         id="path1365"
         d="m -3760.6046,4785.0152 -20.6027,-54.6467 h 16.3059 l 8.5936,25.7809 q 1.3221,4.1866 2.534,8.3733 1.2119,4.1866 2.4238,8.4834 h 0.4407 q 1.212,-4.2968 2.3137,-8.4834 1.2119,-4.1867 2.534,-8.3733 l 8.5936,-25.7809 h 15.5346 l -20.0517,54.6467 z"
         style="font-style:normal;font-variant:normal;font-weight:bold;font-stretch:normal;font-size:245.418px;line-height:1.25;font-family:'Source Code Pro';-inkscape-font-specification:'Source Code Pro Bold';letter-spacing:0px;word-spacing:0px;fill:#f7c5a2;fill-opacity:1;stroke:none;stroke-width:1.4592" />
      <path
         d="m -3684.0763,4729.0474 c -3.6724,0 -7.2353,0.6604 -10.6875,1.9824 -3.3786,1.2487 -6.389,3.1219 -9.0332,5.6192 -2.6441,2.4238 -4.7747,5.4342 -6.3906,9.0332 -1.5425,3.5256 -2.3145,7.5293 -2.3145,12.0097 0,4.5539 0.772,8.6296 2.3145,12.2286 1.5425,3.5256 3.673,6.5019 6.3906,8.9257 2.7177,2.4238 5.9115,4.2951 9.584,5.6172 3.7459,1.2487 7.7496,1.8731 12.0098,1.8731 3.6724,0 7.4189,-0.5506 11.2383,-1.6524 3.8193,-1.1752 7.3084,-2.7532 10.4668,-4.7363 l -5.3985,-9.8066 c -2.4239,1.2486 -4.7758,2.2041 -7.0527,2.8652 -2.2035,0.6611 -4.5535,0.9922 -7.0508,0.9922 -4.4804,0 -8.1151,-0.9196 -10.9062,-2.7559 -2.7911,-1.8362 -4.5906,-4.7368 -5.3985,-8.7031 h 37.2383 c 0.1469,-0.6611 0.2945,-1.6525 0.4414,-2.9746 0.2204,-1.3955 0.3301,-2.8279 0.3301,-4.2969 0,-3.7459 -0.5506,-7.1991 -1.6524,-10.3574 -1.1017,-3.2318 -2.7555,-6.0226 -4.9589,-8.373 -2.1301,-2.3504 -4.8112,-4.1857 -8.043,-5.5079 -3.2318,-1.322 -6.9403,-1.9824 -11.127,-1.9824 z m 0.5508,12.3379 c 6.3901,0 9.9889,3.4152 10.7969,10.2461 h -23.3574 c 0.8079,-3.4521 2.2782,-6.0215 4.4082,-7.7109 2.2035,-1.6894 4.9206,-2.5352 8.1523,-2.5352 z"
         style="font-style:normal;font-variant:normal;font-weight:bold;font-stretch:normal;font-size:245.418px;line-height:1.25;font-family:'Source Code Pro';-inkscape-font-specification:'Source Code Pro Bold';letter-spacing:0px;word-spacing:0px;fill:#f7c5a2;fill-opacity:1;stroke:none;stroke-width:1.4592"
         id="path1367" />
      <path
         id="path1369"
         d="m -3608.9803,4786.3373 q -10.3564,0 -15.6448,-6.0596 -5.1782,-6.1698 -5.1782,-16.6364 v -43.0783 h -17.1872 v -12.7803 h 33.3829 v 56.5197 q 0,2.534 0.661,4.2968 0.7713,1.6526 1.9832,2.7543 1.3221,0.9916 2.8645,1.4323 1.6527,0.4407 3.4154,0.4407 1.873,0 3.8562,-0.3305 2.0933,-0.4407 4.6273,-1.4323 l 3.6357,11.8989 q -2.2034,0.661 -4.0764,1.2119 -1.873,0.5509 -3.746,0.8814 -1.8729,0.4407 -3.9662,0.661 -2.0933,0.2204 -4.6274,0.2204 z"
         style="font-style:normal;font-variant:normal;font-weight:bold;font-stretch:normal;font-size:245.418px;line-height:1.25;font-family:'Source Code Pro';-inkscape-font-specification:'Source Code Pro Bold';letter-spacing:0px;word-spacing:0px;fill:#f7c5a2;fill-opacity:1;stroke:none;stroke-width:1.4592" />
      <path
         d="m -3551.9532,4729.0474 c -3.6725,0 -7.2354,0.6604 -10.6875,1.9824 -3.3787,1.2487 -6.389,3.1219 -9.0332,5.6192 -2.6442,2.4238 -4.7748,5.4342 -6.3907,9.0332 -1.5424,3.5256 -2.3125,7.5293 -2.3125,12.0097 0,4.5539 0.7701,8.6296 2.3125,12.2286 1.5424,3.5256 3.673,6.5019 6.3907,8.9257 2.7176,2.4238 5.9134,4.2951 9.5859,5.6172 3.7459,1.2487 7.7478,1.8731 12.0078,1.8731 3.6725,0 7.4189,-0.5506 11.2383,-1.6524 3.8194,-1.1752 7.3085,-2.7532 10.4668,-4.7363 l -5.3984,-9.8066 c -2.4239,1.2486 -4.7739,2.2041 -7.0508,2.8652 -2.2036,0.6611 -4.5555,0.9922 -7.0528,0.9922 -4.4804,0 -8.1151,-0.9196 -10.9062,-2.7559 -2.7911,-1.8362 -4.5905,-4.7368 -5.3984,-8.7031 h 37.2382 c 0.147,-0.6611 0.2946,-1.6525 0.4414,-2.9746 0.2204,-1.3955 0.3301,-2.8279 0.3301,-4.2969 0,-3.7459 -0.5506,-7.1991 -1.6523,-10.3574 -1.1018,-3.2318 -2.7555,-6.0226 -4.959,-8.373 -2.1301,-2.3504 -4.8092,-4.1857 -8.041,-5.5079 -3.2318,-1.322 -6.9423,-1.9824 -11.1289,-1.9824 z m 0.5508,12.3379 c 6.3901,0 9.9889,3.4152 10.7968,10.2461 h -23.3554 c 0.808,-3.4521 2.2762,-6.0215 4.4062,-7.7109 2.2035,-1.6894 4.9206,-2.5352 8.1524,-2.5352 z"
         style="font-style:normal;font-variant:normal;font-weight:bold;font-stretch:normal;font-size:245.418px;line-height:1.25;font-family:'Source Code Pro';-inkscape-font-specification:'Source Code Pro Bold';letter-spacing:0px;word-spacing:0px;fill:#f7c5a2;fill-opacity:1;stroke:none;stroke-width:1.4592"
         id="path1371" />
      <path
         id="path1373"
         d="m -3507.5955,4785.0152 v -54.6467 h 13.2209 l 1.3221,11.8989 h 0.3306 q 4.0765,-6.7206 9.8055,-9.9157 5.7291,-3.3052 12.3396,-3.3052 3.6357,0 5.8392,0.5508 2.3137,0.5509 4.7375,1.6527 l -3.3052,13.5514 q -2.534,-0.7712 -4.6274,-1.1017 -1.9831,-0.4407 -5.068,-0.4407 -5.068,0 -10.0258,2.9747 -4.8477,2.9747 -8.3733,10.3564 v 28.4251 z"
         style="font-style:normal;font-variant:normal;font-weight:bold;font-stretch:normal;font-size:245.418px;line-height:1.25;font-family:'Source Code Pro';-inkscape-font-specification:'Source Code Pro Bold';letter-spacing:0px;word-spacing:0px;fill:#f7c5a2;fill-opacity:1;stroke:none;stroke-width:1.4592" />
      <path
         transform="translate(0,11.25001)"
         d="m -3775.3203,4553.0215 0.2519,0.2441 a 56.36549,56.36549 0 0 0 24.0332,45.8203 56.36549,56.36549 0 0 0 51.2793,6.9121 l 185.0489,89.7598 -147.1621,-142.7363 z"
         style="fill:#c27070;fill-opacity:1;stroke:none;stroke-width:1.4592px;stroke-linecap:butt;stroke-linejoin:miter;stroke-opacity:1"
         id="path1379" />
      <path
         transform="translate(0,11.25001)"
         d="m -3922.7031,4410.0703 147.3828,142.9512 h 113.4512 l -0.4707,-0.457 a 56.36549,56.36549 0 0 0 -24.0352,-45.8223 56.36549,56.36549 0 0 0 -51.2773,-6.9141 z"
         style="fill:#903c75;fill-opacity:1;stroke:none;stroke-width:1.4592px;stroke-linecap:butt;stroke-linejoin:miter;stroke-opacity:1"
         id="path1392" />
    </g>
  </g>
</svg>
